<svg xmlns="http://www.w3.org/2000/svg" viewBox="0 0 753.22 54.91"><g id="_2" data-name="2"><path d="M.78,54A.73.73,0,0,1,0,53.2V1.72A.73.73,0,0,1,.78.94H22c13,0,19.65,7.33,19.65,17.62S34.87,36.27,22,36.27H14.2a.41.41,0,0,0-.47.47V53.2A.73.73,0,0,1,13,54ZM27.92,18.56c0-3.66-2.41-6-6.7-6h-7a.41.41,0,0,0-.47.47V24.18a.41.41,0,0,0,.47.47h7C25.51,24.65,27.92,22.23,27.92,18.56Z"/><path d="M69.5,1.72a1,1,0,0,1,1-.78H83.23a1,1,0,0,1,1,.78L102.18,53.2c.16.47-.07.78-.54.78H88.77a1,1,0,0,1-1-.78L85.26,45H68l-2.5,8.19a1,1,0,0,1-1,.78H51.71a.53.53,0,0,1-.54-.78Zm12.32,31.9L76.91,17.08h-.23L71.53,33.62Z"/><path d="M125.89,54h-.23c-.16,0-.23-.08-.39-.24a.37.37,0,0,1-.15-.31V13.57a.51.51,0,0,0-.4-.47H111.39a.41.41,0,0,1-.32-.15l-.07-.08a.08.08,0,0,0-.08-.08,1,1,0,0,1-.08-.47V1.72a.76.76,0,0,1,.55-.78h41a.68.68,0,0,1,.54.23.28.28,0,0,1,.08.16.56.56,0,0,1,.16.39v10.6a.88.88,0,0,1-.24.63.58.58,0,0,1-.39.15H139.31c-.16,0-.23,0-.31.08s-.08.08-.16.16V53.43a.72.72,0,0,1-.39.47c-.07.08-.23.08-.39.08Z"/><path d="M180.1,1.72a1,1,0,0,1,1-.78h12.71a1,1,0,0,1,1,.78L212.79,53.2c.15.47-.08.78-.55.78H199.37a1,1,0,0,1-1-.78L195.86,45H178.62l-2.49,8.19a1,1,0,0,1-1,.78H162.32c-.47,0-.7-.31-.55-.78Zm12.33,31.9-4.92-16.54h-.23l-5.15,16.54Z"/><path d="M226.28,27.46c0-7.26.31-10.38,1.56-14.43,2.81-8.66,10.53-13,20-13,9.75,0,16.3,4.52,19.27,11.31a.9.9,0,0,1-.39,1.25l-10.15,4.29a.85.85,0,0,1-1.16-.31c-1.8-2.89-3.91-4.29-7.57-4.29S241.88,14,241,16.93c-.63,1.87-.79,4.21-.79,10.53s.24,8.73.79,10.53c1,3,3.43,4.68,7.25,4.68,3.43,0,6.16-1.48,7-4.21a10.82,10.82,0,0,0,.47-3.44.42.42,0,0,0-.47-.47h-5.77a.73.73,0,0,1-.78-.78V25a.73.73,0,0,1,.78-.78H268.4a.73.73,0,0,1,.78.78V29c0,5.07-.31,9-1.4,12.32-2.81,8.82-10.3,13.57-20,13.57-9.44,0-17.16-4.37-20-13C226.59,37.83,226.28,34.71,226.28,27.46Z"/><path d="M289.15,41.89c-1.25-4.06-1.56-7.18-1.56-14.43s.31-10.38,1.56-14.43C292,4.37,299.68,0,309,0s17.08,4.37,19.89,13c1.33,4,1.56,7.17,1.56,14.43s-.23,10.37-1.56,14.43c-2.81,8.65-10.53,13-19.89,13S292,50.54,289.15,41.89ZM315.82,38c.63-1.8.79-4.22.79-10.53s-.16-8.74-.79-10.53c-.93-3-3.35-4.68-6.78-4.68s-5.85,1.71-6.79,4.68c-.62,1.79-.78,4.21-.78,10.53s.16,8.73.78,10.53c.94,3,3.36,4.68,6.79,4.68S314.89,41,315.82,38Z"/><path d="M350.14,1.72a.74.74,0,0,1,.78-.78h11.47a1.35,1.35,0,0,1,1.32.78l16,30H380v-30a.73.73,0,0,1,.78-.78h10.92a.73.73,0,0,1,.78.78V53.2a.73.73,0,0,1-.78.78H380.25a1.38,1.38,0,0,1-1.32-.78l-15.84-30h-.47v30a.73.73,0,0,1-.78.78H350.92a.74.74,0,0,1-.78-.78Z"/><path d="M413.4,1.72a.73.73,0,0,1,.78-.78h12.17a.73.73,0,0,1,.78.78V53.2a.73.73,0,0,1-.78.78H414.18a.73.73,0,0,1-.78-.78Z"/><path d="M462.85,1.72a1,1,0,0,1,1-.78h12.71a1,1,0,0,1,1,.78L495.54,53.2c.15.47-.08.78-.55.78H482.12a1,1,0,0,1-1-.78L478.61,45H461.37l-2.49,8.19a1,1,0,0,1-1,.78H445.07c-.47,0-.7-.31-.55-.78Zm12.33,31.9-4.92-16.54H470l-5.15,16.54Z"/><path d="M528.29,54a1,1,0,0,1-.93-.78L510.2,1.87c-.24-.62.08-.93.54-.93h5.31a1,1,0,0,1,1.09.78l13.57,41h.16L544,1.72a.94.94,0,0,1,1-.78h5.38c.47,0,.78.31.54.93L533.83,53.2a1,1,0,0,1-.93.78Z"/><path d="M564.88,42.43c-1-3-1.41-6.24-1.41-15s.39-11.94,1.41-15c2.73-8.19,9.12-12.4,18-12.4s15.37,4.21,18.1,12.4c1,3,1.41,6.24,1.41,15s-.39,11.93-1.41,15c-2.73,8.19-9.12,12.41-18.1,12.41S567.61,50.62,564.88,42.43Zm29.33-2c.62-1.95,1.17-5.38,1.17-13s-.55-11.08-1.17-13c-1.64-5.07-5.39-7.88-11.32-7.88s-9.59,2.81-11.23,7.88c-.62,1.95-1.17,5.38-1.17,13s.55,11.07,1.17,13c1.64,5.07,5.38,7.88,11.23,7.88S592.57,45.55,594.21,40.48Z"/><path d="M620.49,1.72a.73.73,0,0,1,.78-.78h5.38a.73.73,0,0,1,.78.78V47a.41.41,0,0,0,.47.46h25.27a.74.74,0,0,1,.78.78V53.2a.73.73,0,0,1-.78.78h-31.9a.73.73,0,0,1-.78-.78Z"/><path d="M669.32,1.72a.73.73,0,0,1,.78-.78H702a.73.73,0,0,1,.78.78V6.63a.73.73,0,0,1-.78.78H676.73a.42.42,0,0,0-.47.47v15.6a.42.42,0,0,0,.47.47h21.45a.73.73,0,0,1,.78.78v4.91a.73.73,0,0,1-.78.78H676.73a.42.42,0,0,0-.47.47V47a.41.41,0,0,0,.47.46H702a.74.74,0,0,1,.78.78V53.2A.73.73,0,0,1,702,54H670.1a.73.73,0,0,1-.78-.78Z"/><path d="M731.4,54a.74.74,0,0,1-.78-.78V32.29L715,1.79a.6.6,0,0,1,.62-.85h5.54a1.23,1.23,0,0,1,1.17.78l11.85,22.69h.16L746.07,1.72a1.07,1.07,0,0,1,1.09-.78h5.38c.63,0,.78.39.63.85l-15.68,30.5V53.2a.73.73,0,0,1-.78.78Z"/></g></svg>